<svg width="16" height="12" viewBox="0 0 16 12" fill="none" xmlns="http://www.w3.org/2000/svg">
<path d="M0.75 3.5298C0.75 1.7791 2.32075 0.25 4.4 0.25C5.59415 0.25 6.7092 0.96342 7.4054 1.86892C7.5474 2.05356 7.7671 2.16176 8 2.16176C8.2329 2.16176 8.4526 2.05356 8.5946 1.86892C9.2908 0.96342 10.4058 0.25 11.6 0.25C13.6792 0.25 15.25 1.7791 15.25 3.5298C15.25 4.9333 14.6542 6.24 13.6939 7.4482C12.7317 8.6588 11.4371 9.7269 10.1293 10.633C9.6344 10.9758 9.1683 11.2675 8.7695 11.4706C8.3414 11.6886 8.0933 11.75 8 11.75C7.9067 11.75 7.6586 11.6886 7.2305 11.4706C6.8317 11.2675 6.3656 10.9758 5.87074 10.633C4.56292 9.7269 3.26828 8.6588 2.30609 7.4482C1.34579 6.24 0.75 4.9333 0.75 3.5298Z" fill="#9B9B9B"/>
</svg>
