<svg width="24" height="25" viewBox="0 0 24 25" fill="none" xmlns="http://www.w3.org/2000/svg">
<path fill-rule="evenodd" clip-rule="evenodd" d="M3.25 10.5298C3.25 7.8293 5.61914 5.75 8.4 5.75C9.83347 5.75 11.0948 6.42214 12 7.29183C12.9052 6.42214 14.1665 5.75 15.6 5.75C18.3809 5.75 20.75 7.8293 20.75 10.5298C20.75 12.3797 19.9611 14.0064 18.8682 15.3815C17.7771 16.7543 16.35 17.9193 14.9835 18.866C14.4615 19.2276 13.9335 19.5611 13.4503 19.8072C12.9965 20.0383 12.4747 20.25 12 20.25C11.5253 20.25 11.0035 20.0383 10.5497 19.8072C10.0665 19.5611 9.53846 19.2276 9.01653 18.866C7.65005 17.9193 6.22287 16.7543 5.13182 15.3815C4.03888 14.0064 3.25 12.3797 3.25 10.5298ZM8.4 7.25C6.32075 7.25 4.75 8.7791 4.75 10.5298C4.75 11.9333 5.34579 13.24 6.30609 14.4482C7.26828 15.6588 8.56292 16.7269 9.87074 17.633C10.3656 17.9758 10.8317 18.2675 11.2305 18.4706C11.6586 18.6886 11.9067 18.75 12 18.75C12.0933 18.75 12.3414 18.6886 12.7695 18.4706C13.1683 18.2675 13.6344 17.9758 14.1293 17.633C15.4371 16.7269 16.7317 15.6588 17.6939 14.4482C18.6542 13.24 19.25 11.9333 19.25 10.5298C19.25 8.7791 17.6792 7.25 15.6 7.25C14.4058 7.25 13.2908 7.96342 12.5946 8.86892C12.4526 9.05356 12.2329 9.16176 12 9.16176C11.7671 9.16176 11.5474 9.05356 11.4054 8.86892C10.7092 7.96342 9.59415 7.25 8.4 7.25Z" fill="#9B9B9B"/>
<path d="M4.75 10.5298C4.75 8.7791 6.32075 7.25 8.4 7.25C9.59415 7.25 10.7092 7.96342 11.4054 8.86892C11.5474 9.05356 11.7671 9.16176 12 9.16176C12.2329 9.16176 12.4526 9.05356 12.5946 8.86892C13.2908 7.96342 14.4058 7.25 15.6 7.25C17.6792 7.25 19.25 8.7791 19.25 10.5298C19.25 11.9333 18.6542 13.24 17.6939 14.4482C16.7317 15.6588 15.4371 16.7269 14.1293 17.633C13.6344 17.9758 13.1683 18.2675 12.7695 18.4706C12.3414 18.6886 12.0933 18.75 12 18.75C11.9067 18.75 11.6586 18.6886 11.2305 18.4706C10.8317 18.2675 10.3656 17.9758 9.87074 17.633C8.56292 16.7269 7.26828 15.6588 6.30609 14.4482C5.34579 13.24 4.75 11.9333 4.75 10.5298Z" fill="#9B9B9B"/>
</svg>
