<svg width="34" height="34" viewBox="0 0 34 34" fill="none" xmlns="http://www.w3.org/2000/svg">
<path d="M20.4357 23.4905C20.6123 23.3736 20.8568 23.4486 20.9293 23.642L23.675 30.969C23.7633 31.2047 23.5408 31.439 23.2872 31.3775L13.1779 28.9273C12.9059 28.8614 12.8415 28.52 13.0721 28.3672L20.4357 23.4905Z" fill="white"/>
<path d="M22.2094 21.8732C22.1968 21.8394 22.1903 21.8037 22.1903 21.7678V14.3834C22.1903 14.1746 21.9803 14.0244 21.7709 14.0836L13.1084 16.5327C12.899 16.5919 12.689 16.4417 12.689 16.2329V11.4605C12.689 11.363 12.7366 11.271 12.8178 11.2119L24.1062 2.98223C24.263 2.86785 24.4893 2.91152 24.5876 3.07515L31.4068 14.4317C31.4551 14.5122 31.4636 14.609 31.4299 14.696L25.6886 29.5272C25.5827 29.8008 25.1775 29.7987 25.0746 29.524L22.2094 21.8732Z" fill="white"/>
<path d="M9.7985 3.62229C9.85297 3.57122 9.92449 3.54 10.0005 3.53407L20.4193 2.72113C20.7448 2.69574 20.9036 3.09239 20.6437 3.28152L11.7633 9.74451C11.6811 9.80433 11.5741 9.82345 11.4749 9.79609L5.62706 8.18344C5.38652 8.1171 5.31009 7.82726 5.48894 7.6597L9.7985 3.62229Z" fill="white"/>
<path d="M3.99884 9.80621C4.02376 9.61553 4.22089 9.49129 4.41384 9.54466L10.6115 11.259C10.7513 11.2976 10.8475 11.42 10.8475 11.5593V18.5001C10.8475 18.709 11.0577 18.8592 11.2671 18.7998L19.8695 16.3617C20.0789 16.3023 20.2892 16.4525 20.2892 16.6614V21.0701C20.2892 21.1724 20.2367 21.2683 20.1488 21.3268L10.5001 27.7428C10.3743 27.8265 10.2046 27.8153 10.092 27.7158L2.65492 21.1471C2.57746 21.0788 2.53926 20.9788 2.55233 20.8787L3.99884 9.80621Z" fill="white"/>
</svg>
