<svg width="41" height="40" viewBox="0 0 41 40" fill="none" xmlns="http://www.w3.org/2000/svg">
<g clip-path="url(#clip0_4_369)">
<path d="M40.5 20C40.5 8.9543 31.5457 0 20.5 0C9.4543 0 0.5 8.9543 0.5 20C0.5 31.0457 9.4543 40 20.5 40C31.5457 40 40.5 31.0457 40.5 20Z" fill="white" fill-opacity="0.2"/>
<path d="M11.5 11.1517H16.8236L21.7444 17.7707L27.8696 11L29.3249 11.0253L22.47 18.7229L29.5 28.1775H24.1785L19.534 22.0093L13.8602 28.3292H12.4281L18.8295 21.1076L11.5 11.1517ZM16.3217 12.1292H13.5101L24.7585 27.1747H27.5195L16.3217 12.1292Z" fill="white"/>
<path d="M16.3219 12.1292H13.5103L24.7587 27.1747H27.5197L16.3219 12.1292Z" fill="white"/>
</g>
<defs>
<clipPath id="clip0_4_369">
<rect width="41" height="40" fill="white"/>
</clipPath>
</defs>
</svg>
